<?xml version="1.0" encoding="UTF-8" standalone="no"?>
<svg width="30px" height="30px" viewBox="-1 -1 103 103" version="1.1" xmlns="http://www.w3.org/2000/svg" xmlns:xlink="http://www.w3.org/1999/xlink" xmlns:sketch="http://www.bohemiancoding.com/sketch/ns">
    <title>Neutral</title>
    <description>Created with Sketch (http://www.bohemiancoding.com/sketch)</description>
    <defs></defs>
    <g id="Page 1" stroke="none" stroke-width="1" fill="none" fill-rule="evenodd">
        <g id="svg2" transform="translate(-455.000000, -233.000000)">
            <path d="M0,0 L0,340 L562,340 L562,0 L0,0 Z M0,0" id="rect3225" fill="#FFFFFF"></path>
            <path d="M495,253.5 C495,257.089851 492.089851,260 488.5,260 C484.910149,260 482,257.089851 482,253.5 C482,249.910149 484.910149,247 488.5,247 C492.089851,247 495,249.910149 495,253.5 L495,253.5 Z M495,253.5" id="path3594" stroke-width="5" fill="#000000"></path>
            <path d="M523,253.5 C523,257.089851 520.089851,260 516.5,260 C512.910149,260 510,257.089851 510,253.5 C510,249.910149 512.910149,247 516.5,247 C520.089851,247 523,249.910149 523,253.5 L523,253.5 Z M523,253.5" id="path3596" stroke-width="5" fill="#000000"></path>
            <path d="M510,303 L523,303" id="path3598" stroke-width="5" fill="#404040"></path>
            <g id="use3300" transform="translate(452.000000, 230.000000)" stroke-width="5">
                <path d="M102,53.0000002 C102,70.5060139 92.6606531,86.6822378 77.5000002,95.4352448 C62.3393473,104.188252 43.6606527,104.188252 28.4999998,95.4352448 C13.3393469,86.6822378 3.99999974,70.5060139 4,53.0000002 C3.99999963,35.4939863 13.3393468,19.3177623 28.4999997,10.5647553 C43.6606526,1.81174824 62.3393474,1.81174824 77.5000003,10.5647553 C92.6606532,19.3177623 102,35.4939863 102,53.0000002 L102,53.0000002 Z M102,53.0000002" id="path3270"></path>
            </g>
        </g>
    </g>
</svg>