<?xml version="1.0" encoding="UTF-8" standalone="no"?>
<svg width="30px" height="30px" viewBox="-1 -1 102 102" version="1.1" xmlns="http://www.w3.org/2000/svg" xmlns:xlink="http://www.w3.org/1999/xlink" xmlns:sketch="http://www.bohemiancoding.com/sketch/ns">
    <title>Positive</title>
    <description>Created with Sketch (http://www.bohemiancoding.com/sketch)</description>
    <defs></defs>
    <g id="Page 1" stroke="none" stroke-width="1" fill="none" fill-rule="evenodd">
        <g id="svg2" transform="translate(-233.000000, -10.000000)">
            <path d="M0,0 L0,340 L562,340 L562,0 L0,0 Z M0,0" id="rect3225" fill="#FFFFFF"></path>
            <path d="M246,60 C246,83.184 261.456,95 280.5,95 C299.544,95 315,83.184 315,60 L246,60 L246,60 Z M246,60" id="path3158" stroke-width="5" fill="#FFFFFF"></path>
            <path d="M254,46 C254,31.3333333 275,31.3333333 275,46" id="path3163" stroke-width="5"></path>
            <path d="M288,46 C288,31.3333333 309,31.3333333 309,46" id="path3165" stroke-width="5"></path>
            <path d="M295,92 L295,60 M267,60 L267,92" id="path3173" stroke-width="5"></path>
            <g id="use3284" transform="translate(230.000000, 7.000000)" stroke-width="5">
                <path d="M102,53.0000002 C102,70.5060139 92.6606531,86.6822378 77.5000002,95.4352448 C62.3393473,104.188252 43.6606527,104.188252 28.4999998,95.4352448 C13.3393469,86.6822378 3.99999974,70.5060139 4,53.0000002 C3.99999963,35.4939863 13.3393468,19.3177623 28.4999997,10.5647553 C43.6606526,1.81174824 62.3393474,1.81174824 77.5000003,10.5647553 C92.6606532,19.3177623 102,35.4939863 102,53.0000002 L102,53.0000002 Z M102,53.0000002" id="path3270"></path>
            </g>
        </g>
    </g>
</svg>